<svg
  class="brand-mark"
  viewBox="0 0 760 270"
  fill="none"
  xmlns="http://www.w3.org/2000/svg"
  role="img"
  aria-label="Logo"
>
  <rect width="760" height="270" rx="28" fill="rgba(255,255,255,0.02)"/>
  <rect x="24" y="30" width="390" height="210" rx="18" fill="#2774AE"/>
  <path d="M89 147.8V94.7H120.3V145.1C120.3 160.2 129 168.4 143.6 168.4C158 168.4 166.7 160.5 166.7 146.3V94.7H198V144.9C198 180.2 177.7 197.6 142.9 197.6C108.1 197.6 89 180 89 147.8Z" fill="white"/>
  <path d="M230 146C230 116.4 253.1 92.5 286.7 92.5C307.6 92.5 321.8 100.1 332.8 112.2L309.9 133.4C302.8 125 295.4 119.6 286.4 119.6C272.4 119.6 262.6 131 262.6 145.6C262.6 160.6 272.4 171.7 286.4 171.7C296.1 171.7 303.1 166.9 310.6 158.1L333.5 177.6C322.1 190.7 308.4 198.8 285.3 198.8C253.7 198.8 230 175.9 230 146Z" fill="white"/>
  <path d="M350.6 94.7H381.8V168.7H429V196.2H350.6V94.7Z" fill="white"/>
  <path d="M492.3 93.9H522.1L565.3 196.2H532L524.7 178.5H488.7L481.6 196.2H449L492.3 93.9ZM516.7 154.5L506.7 129L496.5 154.5H516.7Z" fill="white"/>
  <path d="M474 182.5C474 169.2 483.5 159.1 497.8 159.1C512 159.1 521.7 169.2 521.7 182.5C521.7 196 512 206 497.8 206C483.5 206 474 196 474 182.5Z" fill="#021225" opacity="0.12"/>
  <path d="M507.3 81.3L542.3 196.2H573.6L607.9 81.3H575L557.5 145.3L540.2 81.3H507.3Z" fill="#021225" opacity="0"/>
  <path d="M478 174.8H506.7V196.2H478V174.8Z" fill="#2774AE" opacity="0"/>
  <path d="M506.9 101.2L507 101H539.3L507 101.2H506.9Z" fill="#2774AE" opacity="0"/>
  <path d="M493.6 94.1H522.3L564.8 196.2H532.8L525.2 177.8H488L480.6 196.2H448.4L493.6 94.1ZM516.5 153.9L506.6 129.1L496.5 153.9H516.5Z" fill="white"/>
  <path d="M477.1 95H508.5L531.7 162.3L554.8 95H585.6L544.1 196.2H518.9L477.1 95Z" fill="#021225" opacity="0"/>
  <path d="M468 177.4H721V195.8H468V177.4Z" fill="#021225" opacity="0"/>
  <path d="M466.3 102.8H498V196.2H466.3V102.8Z" fill="#021225" opacity="0"/>
  <path d="M467.8 103H499.1V195.8H467.8V103Z" fill="#021225" opacity="0"/>
  <path d="M472.6 97.8H505V196.2H472.6V97.8Z" fill="#021225" opacity="0"/>
  <path d="M481.2 104.8H512.6V196.2H481.2V104.8Z" fill="#021225" opacity="0"/>
  <path d="M494.8 102.1H526.1V196.2H494.8V102.1Z" fill="#021225" opacity="0"/>
  <path d="M479.8 123.6H510.8V196.2H479.8V123.6Z" fill="#021225" opacity="0"/>
  <path d="M466.9 177.8H720V196.2H466.9V177.8Z" fill="#021225" opacity="0"/>
  <path d="M474.8 95H504.6V195.8H474.8V95Z" fill="#021225" opacity="0"/>
  <path d="M470.5 95H502.2V195.8H470.5V95Z" fill="#021225" opacity="0"/>
  <path d="M503.9 94.8H534.4L557.5 162.5L580.7 94.8H610.9L569.4 196.2H545.7L503.9 94.8Z" fill="white"/>
  <path d="M634.5 94.8H665.8V196.2H634.5V94.8Z" fill="white"/>
  <path d="M689.2 94.8H720.5V196.2H689.2V94.8Z" fill="white"/>
  <path d="M633.7 135.3C633.7 109.7 649 92.8 673.8 92.8C688.7 92.8 697.6 99.1 704.4 106.9V94.8H735.7V196.2H704.4V184.8C697.5 192.7 688.7 198.3 673.8 198.3C649 198.3 633.7 181.4 633.7 155.7V135.3ZM704.8 145.4C704.8 132.8 696.3 124.2 684.8 124.2C673.3 124.2 664.6 132.9 664.6 145.4V145.7C664.6 158.2 673.2 166.9 684.8 166.9C696.3 166.9 704.8 158.2 704.8 145.7V145.4Z" fill="white"/>
</svg>
